
		<svg xmlns="http://www.w3.org/2000/svg" xmlns:xlink="http://www.w3.org/1999/xlink" version="1.1" width="3019.87413050679" height="724.4120569725076">
			<rect fill="#003249" width="3019.87413050679" height="724.4120569725076"/>
			<g transform="scale(0.9937065253395164) translate(10, 10)">
				

<g transform="matrix(2.530216166784583,0,0,2.530216166784583,-2.277194791406342,-15.30216166784583)" id="1549986412587" rel="main_text">
	<path d="M300.3,74.7c13.1,0,23.4,9.6,23.4,25.3v12c0,2.6-1.4,4.1-4.1,4.1h-35.1v6.1c0,6.4,3.6,9.3,9,9.3h6.8   c7.8,0,9.6-1.5,12.5-4.9c0.8-0.9,1.7-0.9,3,0l5.6,3.8c1.4,0.9,1.5,2,0.7,3c-5,6.1-9.6,12-21.9,12h-6.8c-15.3,0-24.9-11.4-24.9-26.1   V100c0-15,9.6-25.3,24.9-25.3L300.3,74.7L300.3,74.7z M308.4,104.1V98c0-6.7-3.2-9.3-8.1-9.3h-6.8c-5.5,0-9,2.6-9,9.4v5.9   L308.4,104.1L308.4,104.1z M449.3,47.5c1.4,0,2,0.7,1.7,2.1l-21,93.1c-0.4,1.5-1.4,2.1-2.6,2.1h-9.6c-1.2,0-2.1-0.6-2.6-2.1   l-22-68.9l-22.2,68.9c-0.4,1.5-1.4,2.1-2.6,2.1h-9.4c-1.2,0-2.4-0.6-2.6-2.1l-21.1-93.1c-0.4-1.4,0.3-2.1,1.7-2.1h12.5   c1.4,0,2.3,0.7,2.5,2.1l13.1,66l20.5-66c0.4-1.4,1.2-2.1,2.6-2.1h10c1.4,0,2.3,0.7,2.6,2.1l20.5,66l13.1-66   c0.1-1.4,0.9-2.1,2.4-2.1L449.3,47.5L449.3,47.5z M518.8,143.5c0.1,0.6,0.3,1.2-0.4,1.2h-12.8c-1.5,0-2.5-1.4-2.5-3.3v-4.7   c-3.2,4.9-7.8,8.8-14.9,8.8h-4.3c-12.9,0-22.4-7.8-22.4-21.7s7.6-20.2,22.1-20.2h19.5V98c0-7.3-2.6-9.3-9.9-9.3h-3.8   c-7.1,0-12.3,1.8-15.3,3c-2.3,0.8-3.8,0.8-4.6-1.1l-2.9-6.8c-0.6-1.4-0.7-2.5,0.7-3.3c5.8-3.6,14.4-5.6,22.1-5.6h3.8   c17.2,0,25.3,7.6,25.3,23.9v42.7C518.6,142.1,518.7,143,518.8,143.5L518.8,143.5z M491.3,131.6c7.5,0,10.2-3,11.8-6.7v-9.1h-19.2   c-4.1,0-7.1,1.8-7.1,7.9c0,5.8,2.9,7.9,7.1,7.9H491.3z M534.9,49.6c0-1.4,0.7-2.1,2.1-2.1h11.3c1.4,0,2.1,0.7,2.1,2.1v93.1   c0,1.4-0.7,2.1-2.1,2.1H537c-1.4,0-2.1-0.7-2.1-2.1V49.6L534.9,49.6z M567.1,49.6c0-1.4,0.7-2.1,2.1-2.1h11.3   c1.4,0,2.1,0.7,2.1,2.1v93.1c0,1.4-0.7,2.1-2.1,2.1h-11.3c-1.4,0-2.1-0.7-2.1-2.1V49.6L567.1,49.6z M628.7,74.7   c13.1,0,23.4,9.6,23.4,25.3v12c0,2.6-1.4,4.1-4.1,4.1h-35.1v6.1c0,6.4,3.6,9.3,9,9.3h6.8c7.8,0,9.6-1.5,12.5-4.9   c0.8-0.9,1.7-0.9,3,0l5.6,3.8c1.4,0.9,1.5,2,0.7,3c-5,6.1-9.6,12-21.9,12h-6.8c-15.3,0-24.9-11.4-24.9-26.1V100   c0-15,9.6-25.3,24.9-25.3L628.7,74.7L628.7,74.7z M636.7,104.1V98c0-6.7-3.2-9.3-8.1-9.3h-6.8c-5.5,0-9,2.6-9,9.4v5.9L636.7,104.1   L636.7,104.1z M697.7,89.2h-9.9v34.6c0,5.5,2.4,7.1,9,7.3c1.8,0.1,2.8,1.2,2.6,2.9l-0.4,8.4c-0.1,1.7-1.2,2.6-3.3,2.6   c-18.6,0-23.4-7-23.4-21.4V89.2h-6.8c-1.4,0-2.1-0.7-2.1-2.1v-9.6c0-1.5,0.7-2.3,2.1-2.3h6.8v-8.9c0-1.4,0.7-2.1,2.1-2.1h11.4   c1.4,0,2.1,0.7,2.1,2.1v8.9h9.7c1.5,0,2.3,0.7,2.3,2.1V87C699.7,88.4,698.6,89.2,697.7,89.2L697.7,89.2z M770.4,92.1   c5.9,3.9,10,10.5,10,19.8v7c0,17.5-9.4,26-28.6,26h-28.4h-7c-1.4,0-2.1-0.7-2.1-2.1V49.6c0-1.4,0.7-2.1,2.1-2.1h11.7h23.2   c17.5,0,25.4,7.6,25.4,26.4C776.7,81.9,774.3,87.9,770.4,92.1L770.4,92.1z M760.8,73.8c0-10.5-2.4-12.1-9.6-12.1h-21.1v25h21.1   C758.5,86.8,760.8,84.6,760.8,73.8z M764.6,118.8v-7c0-9.6-3.9-12.1-12.8-12.1h-21.7v30.7h21.7   C760.7,130.4,764.6,128.4,764.6,118.8z M824.5,74.7c15.3,0,24.5,10.3,24.5,25.1v20.7c0,14.7-9.1,24.9-24.5,24.9h-7.2   c-15.3,0-24.5-10.2-24.5-24.9V99.8c0-14.9,9.1-25.1,24.5-25.1L824.5,74.7L824.5,74.7z M833.5,122.2V98c0-6.7-3.6-9.3-9-9.3h-7.2   c-5.5,0-9,2.6-9,9.3v24.3c0,6.4,3.6,9.3,9,9.3h7.1C829.9,131.6,833.5,128.7,833.5,122.2z M892.9,74.7c15.3,0,24.5,10.3,24.5,25.1   v20.7c0,14.7-9.1,24.9-24.5,24.9h-7.1c-15.3,0-24.5-10.2-24.5-24.9V99.8c0-14.9,9.1-25.1,24.5-25.1L892.9,74.7L892.9,74.7z    M902,122.2V98c0-6.7-3.6-9.3-9-9.3h-7.1c-5.5,0-9,2.6-9,9.3v24.3c0,6.4,3.6,9.3,9,9.3h7.1C898.4,131.6,902,128.7,902,122.2z    M955.8,102.7c18.6,1.8,27.7,5.9,27.7,22.1c0,14.4-9,20.7-24.8,20.7h-4.9c-14.9,0-23.1-6.2-24.5-18.1c-0.1-1.2,0.7-2.1,2.1-2.1   h10.3c2.1,0,2.9,0.4,3.3,1.5c1.5,3,3.2,4.9,8.5,4.9h5.9c5.9,0,8.6-2.4,8.6-7c0-5.9-1.4-7.5-12.2-8.5c-19.3-1.5-26-7-26-21.3   c0-14.1,9.3-20.2,23.6-20.2h4.9c14,0,23.9,7.3,23.9,19.8c0,1.4-0.4,2.3-2,2.3h-10c-1.7,0-2.9-0.6-3.6-2.5c-1.2-3.2-2.9-5.6-8.6-5.6   h-4.6c-5.3,0-8.2,2.3-8.2,6.1C945.2,98.7,946.3,101.5,955.8,102.7L955.8,102.7z M1028.2,89.2h-9.9v34.6c0,5.5,2.4,7.1,9,7.3   c1.8,0.1,2.8,1.2,2.6,2.9l-0.4,8.4c-0.1,1.7-1.2,2.6-3.3,2.6c-18.6,0-23.4-7-23.4-21.4V89.2h-6.8c-1.4,0-2.1-0.7-2.1-2.1v-9.6   c0-1.5,0.7-2.3,2.1-2.3h6.8v-8.9c0-1.4,0.7-2.1,2.1-2.1h11.4c1.4,0,2.1,0.7,2.1,2.1v8.9h9.7c1.5,0,2.3,0.7,2.3,2.1V87   C1030.2,88.4,1029.1,89.2,1028.2,89.2L1028.2,89.2z M1073.7,74.7c13.1,0,23.4,9.6,23.4,25.3v12c0,2.6-1.4,4.1-4.1,4.1h-35.1v6.1   c0,6.4,3.6,9.3,9,9.3h6.8c7.8,0,9.6-1.5,12.5-4.9c0.8-0.9,1.7-0.9,3,0l5.6,3.8c1.4,0.9,1.5,2,0.7,3c-5,6.1-9.6,12-21.9,12h-6.8   c-15.3,0-24.9-11.4-24.9-26.1V100c0-15,9.6-25.3,24.9-25.3L1073.7,74.7L1073.7,74.7z M1081.7,104.1V98c0-6.7-3.2-9.3-8.1-9.3h-6.8   c-5.5,0-9,2.6-9,9.4v5.9L1081.7,104.1L1081.7,104.1z M1153.5,88.3c-0.8,1.4-2.1,1.8-3.5,1.4c-2.1-0.7-4.6-1.1-7.3-1.1h-1.8   c-7.3,0-12.1,3.5-13.7,6.2v47.8c0,1.4-0.7,2.1-2.1,2.1h-11.3c-1.4,0-2.1-0.7-2.1-2.1V77.3c0-1.4,0.7-2.1,2.1-2.1h11.3   c1.4,0,2.1,0.7,2.1,2.1V84c3.9-6.1,10.8-9.3,19.5-9.3c4.1,0,7.3,0.7,10.2,2c1.4,0.8,1.8,2.1,0.9,3.8L1153.5,88.3z" style="fill: #FFF;"/>
</g>
<g transform="matrix(1.367514122461998,0,0,1.367514122461998,-1.3354199728346297,47.43169320787117)" id="1549986415336" rel="slogan_text">
	<path class="st0" d="M574.3,395.4c-8.4,2.7-17.4,4-27.1,4c-33.9,0-50.8-16.9-50.8-50.6c0-31.9,16.9-47.8,50.8-47.8   c9.7,0,18.7,1.3,27.1,4v10.8c-8.4-3.2-16.9-4.7-25.8-4.7c-26.5,0-39.6,12.5-39.6,37.7c0,26.9,13.2,40.4,39.6,40.4   c8.9,0,17.4-1.6,25.8-4.7V395.4z M590.3,377.3c0-14.6,9.6-21.9,28.9-21.9c6.2,0,12.4,0.5,18.5,1.3V350c0-8.2-6.4-12.2-19.2-12.2   c-7.3,0-14.9,1.1-22.5,3.4v-10.2c7.7-2.3,15.2-3.4,22.5-3.4c21.2,0,31.7,7.3,31.7,22.1v49.2h-7.1l-4.3-7.1   c-7.1,4.7-14.9,7.1-23.2,7.1C598.8,398.7,590.3,391.6,590.3,377.3L590.3,377.3z M619.2,365.5c-10.9,0-16.4,3.9-16.4,11.5   c0,7.7,4.3,11.5,12.9,11.5c8.7,0,16-2.3,22-6.9v-14.8C631.5,366,625.3,365.5,619.2,365.5L619.2,365.5z M669.9,395.4v-10.8   c8.4,2.7,16.9,4,25.3,4c11.4,0,17-3.4,17-10.2c0-6.3-4-9.5-11.9-9.5h-10.2c-15.3,0-23.1-7-23.1-21c0-13.6,9.9-20.3,29.7-20.3   c8.5,0,16.9,1.1,25.3,3.4v10.8c-8.4-2.7-16.8-4-25.3-4c-11.9,0-17.8,3.4-17.8,10.2c0,6.3,3.8,9.5,11.2,9.5h10.2   c16.3,0,24.4,7,24.4,21c0,13.6-9.9,20.3-29.6,20.3C686.8,398.7,678.3,397.6,669.9,395.4L669.9,395.4z M741.9,398.7v-97h12.5v33.5   c6-5.2,13.5-7.7,22.2-7.7c17.8,0,26.6,8.9,26.6,26.6v44.7h-12.5v-44.9c0-10.5-5.3-15.9-15.8-15.9c-7.2,0-14,3-20.5,9v51.8   L741.9,398.7L741.9,398.7z M836.1,386.3c4.1,1.3,9.1,2,15,2c15.8,0,23.7-9,23.7-27c0-15.3-7.2-22.9-21.5-22.9   c-6.5,0-12.2,1.2-17.2,3.7L836.1,386.3L836.1,386.3z M823.6,301.8h12.5v29.2c5.4-2.3,11.1-3.4,17.3-3.4c22.5,0,33.8,11.4,33.8,34.2   c0,24.7-11.9,37-35.5,37c-10.3,0-19.6-0.9-28.2-2.9V301.8L823.6,301.8z M900.8,377.3c0-14.6,9.6-21.9,28.9-21.9   c6.2,0,12.4,0.5,18.5,1.3V350c0-8.2-6.4-12.2-19.2-12.2c-7.3,0-14.9,1.1-22.5,3.4v-10.2c7.7-2.3,15.2-3.4,22.5-3.4   c21.2,0,31.7,7.3,31.7,22.1v49.2h-7.1l-4.3-7.1c-7.1,4.7-14.9,7.1-23.2,7.1C909.3,398.7,900.8,391.6,900.8,377.3L900.8,377.3z    M929.7,365.5c-10.9,0-16.4,3.9-16.4,11.5c0,7.7,4.3,11.5,12.9,11.5c8.7,0,16-2.3,22-6.9v-14.8C942.1,366,935.9,365.5,929.7,365.5   L929.7,365.5z M1034.8,396.7c-5.8,1.3-12.2,2.1-19,2.1c-25.3,0-37.9-12.3-37.9-37c0-22.9,12.6-34.3,37.9-34.3   c6.8,0,13.1,0.7,19,2.1v10.2c-5.8-1.3-12.4-2.1-19.7-2.1c-16.5,0-24.8,8-24.8,24.1c0,17.9,8.3,26.8,24.8,26.8   c7.3,0,13.7-0.7,19.7-2.1V396.7L1034.8,396.7z M1050.7,398.7v-97h12.5v31.4c6.9-3.7,14.9-5.6,23.9-5.6c17.7,0,26.6,6.9,26.6,20.5   c0,10-6.8,16.9-20.3,20.6l22.8,30h-15.9l-22.7-30.2v-5.6c15.7-1.4,23.5-6.4,23.5-14.9c0-6.9-5-10.4-14.9-10.4   c-7.8,0-15.5,2.2-23.1,6.4v54.7L1050.7,398.7L1050.7,398.7z M1161.4,327.8c0-17.4,11.5-26.1,34.6-26.1c8.4,0,16.5,1.1,24.4,3.4   v10.2c-7.9-2.3-15.7-3.4-23.5-3.4c-15.3,0-23,5.2-23,15.6c0,11.3,5.7,16.9,17.3,16.9h26.4v-9.6h4.2l6.9,9.6h12.3v10.2h-10.8v10.8   c0,22.3-11.7,33.4-35.1,33.4c-22.4,0-33.6-8.9-33.6-26.9c0-11.2,4.3-18.7,13.1-22.6C1165.7,345.5,1161.4,338.4,1161.4,327.8   L1161.4,327.8z M1191.3,354.7c-11.6,0-17.4,5.6-17.4,17c0,11.3,6.8,16.9,20.4,16.9c15.4,0,23.2-7.7,23.2-23.2v-10.7H1191.3   L1191.3,354.7z M1373.1,301.8l-41.1,97h-13.9l-41.3-97h13.2l35.6,84l34.7-84H1373.1z M1401,301.8v97h-12.5v-97H1401z M1426.1,398.7   v-97h39.4c19.8,0,29.8,8.7,29.8,26c0,18.8-13.6,30.4-40.7,34.6l-2.5-10.5c19.9-2.9,29.8-10.7,29.8-23.4c0-10.7-5.8-16.1-17.5-16.1   h-25.6v86.6L1426.1,398.7L1426.1,398.7z M1545,361.3v-59.6h12.5v59.6c0,18.6,9.2,28,27.8,28c18.5,0,27.8-9.3,27.8-28v-59.6h12.5   v59.6c0,25.4-13.5,38.1-40.4,38.1S1545,386.7,1545,361.3L1545,361.3z M1659.3,384.2c4.9,2.4,10.5,3.7,16.5,3.7   c14.8,0,22.2-8.9,22.2-26.6c0-15.5-7.3-23.3-22-23.3c-6.3,0-11.9,0.6-16.7,1.6V384.2L1659.3,384.2z M1646.8,330.4   c9.4-2,19.2-2.9,29.3-2.9c22.9,0,34.3,11.3,34.3,33.8c0,25-11.5,37.4-34.5,37.4c-5.7,0-11.2-1.1-16.6-3.4v29.2h-12.5V330.4   L1646.8,330.4z M1774.9,339.6c-4.3-1.1-9.6-1.6-15.9-1.6c-15.2,0-22.7,8.2-22.7,24.7c0,16.9,7.2,25.3,21.5,25.3   c6.5,0,12.2-1.2,17.1-3.7V339.6L1774.9,339.6z M1787.5,398.7c0,17.2-10.9,25.8-32.8,25.8c-8.8,0-16.6-1.1-23.4-3.4V411   c6.9,2.3,14.8,3.4,23.4,3.4c13.4,0,20.1-5.2,20.1-15.6v-3.4c-5.4,2.3-11.1,3.4-17.2,3.4c-22.5,0-33.8-12.1-33.8-36.1   c0-23.4,11.9-35.2,35.6-35.2c9.6,0,18.9,0.9,28,2.9L1787.5,398.7L1787.5,398.7z M1807.8,398.7v-71.2h8.5l2.3,9.1   c6.2-6,13.7-9.1,22.5-9.1V338c-8.5,0-15.4,3-20.7,9v51.8L1807.8,398.7L1807.8,398.7z M1850.2,377.3c0-14.6,9.6-21.9,28.9-21.9   c6.2,0,12.4,0.5,18.5,1.3V350c0-8.2-6.4-12.2-19.2-12.2c-7.3,0-14.9,1.1-22.5,3.4v-10.2c7.7-2.3,15.2-3.4,22.5-3.4   c21.2,0,31.7,7.3,31.7,22.1v49.2h-7.1l-4.3-7.1c-7.1,4.7-14.9,7.1-23.2,7.1C1858.6,398.7,1850.2,391.6,1850.2,377.3L1850.2,377.3z    M1879.1,365.5c-10.9,0-16.4,3.9-16.4,11.5c0,7.7,4.3,11.5,12.9,11.5c8.7,0,16-2.3,22-6.9v-14.8   C1891.5,366,1885.3,365.5,1879.1,365.5L1879.1,365.5z M1978.4,342.1c-5.1-2.4-10.8-3.7-17.3-3.7c-14.3,0-21.5,7.6-21.5,22.9   c0,18.1,7.2,27,21.5,27c6.5,0,12.3-0.8,17.3-2.6V342.1L1978.4,342.1z M1990.9,394.5c-8.7,2.8-19.3,4.2-31.9,4.2   c-21.2,0-31.8-12.3-31.8-37c0-22.8,11.3-34.2,33.8-34.2c6.1,0,12,1.1,17.4,3.4v-29.2h12.5V394.5L1990.9,394.5z M2040.7,327.5   c20.2,0,30.4,10,30.4,30c0,2.8-0.2,5.9-0.6,9.1h-50c0,14.6,8.5,21.8,25.5,21.8c8.1,0,15.3-0.9,21.6-2.7v10.2   c-6.3,1.8-13.9,2.7-23,2.7c-24.5,0-36.7-12.1-36.7-36.4C2007.9,339.1,2018.8,327.5,2040.7,327.5L2040.7,327.5z M2020.4,356.3h38.5   c-0.3-12.5-6.4-18.7-18.4-18.7C2028,337.5,2021.3,343.7,2020.4,356.3L2020.4,356.3z M2087.3,395.4v-10.8c8.4,2.7,16.9,4,25.3,4   c11.4,0,17-3.4,17-10.2c0-6.3-4-9.5-11.9-9.5h-10.2c-15.3,0-23.1-7-23.1-21c0-13.6,9.9-20.3,29.7-20.3c8.5,0,16.9,1.1,25.3,3.4   v10.8c-8.4-2.7-16.8-4-25.3-4c-11.9,0-17.8,3.4-17.8,10.2c0,6.3,3.8,9.5,11.2,9.5h10.2c16.3,0,24.4,7,24.4,21   c0,13.6-9.9,20.3-29.6,20.3C2104.1,398.7,2095.6,397.6,2087.3,395.4z" style="fill: #80CED7;"/>
</g>
<g id="1549986417670" rel="symbol">
	<path class="st0" d="M198,123.7l-107.3,175c-7.2,12,1,27.1,15.1,27.1h54.1v69.8c0,91.1,73.4,165.2,164.7,165.2   c11.5,0,17.7-14,9.9-22.4L314.7,517c-31.3-33.9-49-78.7-49-125v-66.7h54.1c13.6,0,22.4-15.1,15.1-27.1L228.2,123.7   C221.5,112.2,204.8,112.2,198,123.7z" style="fill: #80CED7;"/>
	<path class="st0" d="M336.6,166.9l19.8,21.4c31.3,33.9,49,78.7,49,125v66.1h-54.7c-13.6,0-22.4,15.1-15.1,27.1l107.3,175   c6.8,11.5,23.4,11.5,30.2,0L580.5,406c7.3-12-1-27.1-15.1-27.1h-54.1v-69.8c0-91.1-73.4-165.2-164.7-165.2   C334.6,144,328.3,158.1,336.6,166.9z" style="fill: #80CED7;"/>
</g>

			</g>
		</svg>
	